<svg xmlns="http://www.w3.org/2000/svg" fill="none" viewBox="0 0 98 104"><g filter="url(#a)"><path fill="url(#b)" d="M44.233 24.173a9.522 9.522 0 0 1 9.523 0l17.05 9.844a9.522 9.522 0 0 1 4.761 8.247v19.688a9.523 9.523 0 0 1-4.761 8.246l-17.05 9.844a9.523 9.523 0 0 1-9.523 0l-17.05-9.844a9.523 9.523 0 0 1-4.761-8.246V42.264a9.522 9.522 0 0 1 4.76-8.247l17.051-9.844z"/><path stroke="url(#c)" stroke-width=".5" d="M53.88 23.956a9.772 9.772 0 0 0-9.772 0L27.058 33.8a9.772 9.772 0 0 0-4.886 8.464v19.688a9.772 9.772 0 0 0 4.886 8.463l17.05 9.844a9.772 9.772 0 0 0 9.773 0l17.05-9.844a9.772 9.772 0 0 0 4.886-8.463V42.264a9.772 9.772 0 0 0-4.886-8.464l-17.05-9.844z"/></g><path fill="#14161B" stroke="url(#d)" stroke-width="1.695" d="M45.183 27.993a7.623 7.623 0 0 1 7.623 0l15.166 8.756a7.623 7.623 0 0 1 3.812 6.602v17.513a7.623 7.623 0 0 1-3.812 6.602l-15.166 8.756a7.623 7.623 0 0 1-7.623 0l-15.167-8.756a7.623 7.623 0 0 1-3.811-6.602V43.351a7.623 7.623 0 0 1 3.811-6.602l15.167-8.756z"/><g filter="url(#e)"><path fill="url(#f)" d="M48.754 66.74 45.197 63l.987-1.498a.4.4 0 0 0-.185-.59l-11.497-4.643-2.797-10.955 12.917 4.621A.3.3 0 0 0 45 49.77l4-9.398 4.002 9.398a.3.3 0 0 0 .377.165l12.917-4.62-2.797 10.954-11.497 4.642a.4.4 0 0 0-.185.591L52.803 63l-3.557 3.74a.34.34 0 0 1-.492 0z"/></g><defs><linearGradient id="b" x1="36.391" x2="60.401" y1="29.197" y2="78.599" gradientUnits="userSpaceOnUse"><stop stop-color="#272D2D"/><stop offset="1" stop-color="#171B1C"/></linearGradient><linearGradient id="c" x1="18.311" x2="79.678" y1="21.424" y2="82.791" gradientUnits="userSpaceOnUse"><stop stop-color="#D1E1E1"/><stop offset=".458" stop-color="#1A2021"/><stop offset="1" stop-color="#D1E1E1"/></linearGradient><linearGradient id="d" x1="35.815" x2="62.37" y1="32.762" y2="72.32" gradientUnits="userSpaceOnUse"><stop stop-color="#C6D5D5"/><stop offset="1" stop-color="#CDDBDE"/></linearGradient><linearGradient id="f" x1="44.922" x2="52.405" y1="51.907" y2="67.663" gradientUnits="userSpaceOnUse"><stop stop-color="#D1E0E0"/><stop offset="1" stop-color="#677A7E"/></linearGradient><filter id="a" width="97.202" height="102.477" x=".393" y=".869" color-interpolation-filters="sRGB" filterUnits="userSpaceOnUse"><feFlood flood-opacity="0" result="BackgroundImageFix"/><feColorMatrix in="SourceAlpha" result="hardAlpha" values="0 0 0 0 0 0 0 0 0 0 0 0 0 0 0 0 0 0 127 0"/><feOffset/><feGaussianBlur stdDeviation="1.794"/><feComposite in2="hardAlpha" operator="out"/><feColorMatrix values="0 0 0 0 0.497833 0 0 0 0 0.596083 0 0 0 0 0.628833 0 0 0 0.5 0"/><feBlend in2="BackgroundImageFix" result="effect1_dropShadow_1460_43607"/><feColorMatrix in="SourceAlpha" result="hardAlpha" values="0 0 0 0 0 0 0 0 0 0 0 0 0 0 0 0 0 0 127 0"/><feOffset/><feGaussianBlur stdDeviation="10.764"/><feComposite in2="hardAlpha" operator="out"/><feColorMatrix values="0 0 0 0 0.4595 0 0 0 0 0.577 0 0 0 0 0.6005 0 0 0 0.4 0"/><feBlend in2="effect1_dropShadow_1460_43607" result="effect2_dropShadow_1460_43607"/><feBlend in="SourceGraphic" in2="effect2_dropShadow_1460_43607" result="shape"/></filter><filter id="e" width="75.269" height="67.152" x="11.366" y="20.033" color-interpolation-filters="sRGB" filterUnits="userSpaceOnUse"><feFlood flood-opacity="0" result="BackgroundImageFix"/><feColorMatrix in="SourceAlpha" result="hardAlpha" values="0 0 0 0 0 0 0 0 0 0 0 0 0 0 0 0 0 0 127 0"/><feOffset/><feGaussianBlur stdDeviation="10.169"/><feComposite in2="hardAlpha" operator="out"/><feColorMatrix values="0 0 0 0 0.411 0 0 0 0 0.574611 0 0 0 0 0.607333 0 0 0 0.6 0"/><feBlend in2="BackgroundImageFix" result="effect1_dropShadow_1460_43607"/><feColorMatrix in="SourceAlpha" result="hardAlpha" values="0 0 0 0 0 0 0 0 0 0 0 0 0 0 0 0 0 0 127 0"/><feOffset dy="1.356"/><feGaussianBlur stdDeviation=".678"/><feComposite in2="hardAlpha" operator="out"/><feColorMatrix values="0 0 0 0 0 0 0 0 0 0 0 0 0 0 0 0 0 0 0.37 0"/><feBlend in2="effect1_dropShadow_1460_43607" result="effect2_dropShadow_1460_43607"/><feBlend in="SourceGraphic" in2="effect2_dropShadow_1460_43607" result="shape"/></filter></defs></svg>