<svg xmlns="http://www.w3.org/2000/svg" width="98" height="102" fill="none"><g filter="url(#a)"><path fill="url(#b)" d="M44.233 23.173a9.522 9.522 0 0 1 9.523 0l17.05 9.844a9.522 9.522 0 0 1 4.761 8.247v19.688a9.523 9.523 0 0 1-4.761 8.246l-17.05 9.844a9.523 9.523 0 0 1-9.523 0l-17.05-9.844a9.523 9.523 0 0 1-4.761-8.246V41.264a9.522 9.522 0 0 1 4.76-8.247l17.051-9.844z"/></g><path fill="#14161B" stroke="url(#c)" stroke-width="1.695" d="M45.183 26.993a7.622 7.622 0 0 1 7.623 0l15.167 8.756a7.623 7.623 0 0 1 3.811 6.602v17.513a7.623 7.623 0 0 1-3.811 6.602l-15.167 8.757a7.623 7.623 0 0 1-7.623 0l-15.167-8.757a7.622 7.622 0 0 1-3.811-6.602V42.351a7.623 7.623 0 0 1 3.81-6.602l15.168-8.756z"/><g filter="url(#d)"><path fill="url(#e)" fill-rule="evenodd" d="M49 51.977c-6.267 0-11.967 1.074-16.212 2.828l15.987-14.106a.34.34 0 0 1 .45 0l15.987 14.105c-4.245-1.753-9.945-2.827-16.212-2.827zm0 5.546c-5.078 0-9.568.83-12.29 2.102l-2.247-2.398c3.52-1.71 8.727-2.791 14.537-2.791 5.712 0 10.842 1.046 14.358 2.706l-2.354 2.354c-2.744-1.199-7.1-1.973-12.004-1.973z" clip-rule="evenodd"/></g><defs><linearGradient id="b" x1="36.391" x2="60.401" y1="28.197" y2="77.599" gradientUnits="userSpaceOnUse"><stop stop-color="#FFCE0A"/><stop offset="1" stop-color="#CC7A00"/></linearGradient><linearGradient id="c" x1="35.815" x2="62.37" y1="31.762" y2="71.32" gradientUnits="userSpaceOnUse"><stop stop-color="#FFF9BD"/><stop offset="1" stop-color="#FFF266"/></linearGradient><linearGradient id="e" x1="45.177" x2="49.587" y1="48.848" y2="61.04" gradientUnits="userSpaceOnUse"><stop stop-color="#F6DC5A"/><stop offset="1" stop-color="#F0A000"/></linearGradient><filter id="a" width="96.202" height="101.477" x=".893" y=".369" color-interpolation-filters="sRGB" filterUnits="userSpaceOnUse"><feFlood flood-opacity="0" result="BackgroundImageFix"/><feColorMatrix in="SourceAlpha" result="hardAlpha" values="0 0 0 0 0 0 0 0 0 0 0 0 0 0 0 0 0 0 127 0"/><feOffset/><feGaussianBlur stdDeviation="1.794"/><feComposite in2="hardAlpha" operator="out"/><feColorMatrix values="0 0 0 0 0.6 0 0 0 0 0.5 0 0 0 0 0 0 0 0 0.5 0"/><feBlend in2="BackgroundImageFix" result="effect1_dropShadow_1494_31562"/><feColorMatrix in="SourceAlpha" result="hardAlpha" values="0 0 0 0 0 0 0 0 0 0 0 0 0 0 0 0 0 0 127 0"/><feOffset/><feGaussianBlur stdDeviation="10.764"/><feComposite in2="hardAlpha" operator="out"/><feColorMatrix values="0 0 0 0 1 0 0 0 0 1 0 0 0 0 0 0 0 0 0.24 0"/><feBlend in2="effect1_dropShadow_1494_31562" result="effect2_dropShadow_1494_31562"/><feBlend in="SourceGraphic" in2="effect2_dropShadow_1494_31562" result="shape"/></filter><filter id="d" width="73.101" height="59.689" x="12.449" y="20.274" color-interpolation-filters="sRGB" filterUnits="userSpaceOnUse"><feFlood flood-opacity="0" result="BackgroundImageFix"/><feColorMatrix in="SourceAlpha" result="hardAlpha" values="0 0 0 0 0 0 0 0 0 0 0 0 0 0 0 0 0 0 127 0"/><feOffset/><feGaussianBlur stdDeviation="10.169"/><feComposite in2="hardAlpha" operator="out"/><feColorMatrix values="0 0 0 0 0.9 0 0 0 0 0.675 0 0 0 0 0 0 0 0 0.4 0"/><feBlend in2="BackgroundImageFix" result="effect1_dropShadow_1494_31562"/><feColorMatrix in="SourceAlpha" result="hardAlpha" values="0 0 0 0 0 0 0 0 0 0 0 0 0 0 0 0 0 0 127 0"/><feOffset dy="1.356"/><feGaussianBlur stdDeviation=".678"/><feComposite in2="hardAlpha" operator="out"/><feColorMatrix values="0 0 0 0 0 0 0 0 0 0 0 0 0 0 0 0 0 0 0.37 0"/><feBlend in2="effect1_dropShadow_1494_31562" result="effect2_dropShadow_1494_31562"/><feBlend in="SourceGraphic" in2="effect2_dropShadow_1494_31562" result="shape"/></filter></defs></svg>