<svg xmlns="http://www.w3.org/2000/svg" width="98" height="102" fill="none"><g filter="url(#a)"><path fill="url(#b)" d="M44.233 22.987a9.523 9.523 0 0 1 9.523 0l17.05 9.844a9.522 9.522 0 0 1 4.761 8.246v19.688a9.523 9.523 0 0 1-4.761 8.247l-17.05 9.844a9.523 9.523 0 0 1-9.523 0l-17.05-9.844a9.523 9.523 0 0 1-4.761-8.247V41.077a9.522 9.522 0 0 1 4.76-8.246l17.051-9.844z"/></g><g filter="url(#c)"><path fill="url(#d)" d="M44.759 26.073a8.47 8.47 0 0 1 8.47 0l15.167 8.756a8.47 8.47 0 0 1 4.235 7.336v17.513a8.47 8.47 0 0 1-4.235 7.336L53.23 75.77a8.47 8.47 0 0 1-8.471 0l-15.167-8.756a8.47 8.47 0 0 1-4.235-7.336V42.165a8.47 8.47 0 0 1 4.235-7.336l15.167-8.756z"/><path stroke="url(#e)" stroke-width="1.695" d="M45.183 26.807a7.623 7.623 0 0 1 7.623 0l15.166 8.756a7.623 7.623 0 0 1 3.812 6.602v17.513a7.623 7.623 0 0 1-3.812 6.602l-15.166 8.756a7.623 7.623 0 0 1-7.623 0L30.016 66.28a7.623 7.623 0 0 1-3.811-6.602V42.165a7.623 7.623 0 0 1 3.811-6.602l15.167-8.756z"/></g><g filter="url(#f)"><path fill="#14161B" fill-rule="evenodd" d="M34.678 55.644c-.378.41.135 1.12.656.922 3.864-1.475 8.578-2.34 13.666-2.34 5.087 0 9.801.865 13.666 2.34.521.198 1.034-.513.655-.922L49.25 40.447a.34.34 0 0 0-.498 0L34.678 55.644z" clip-rule="evenodd"/></g><defs><linearGradient id="b" x1="41.759" x2="61.646" y1="46.82" y2="79.055" gradientUnits="userSpaceOnUse"><stop stop-color="#8EA4A4"/><stop offset="1" stop-color="#455254"/></linearGradient><linearGradient id="d" x1="42.558" x2="60.248" y1="47.273" y2="75.947" gradientUnits="userSpaceOnUse"><stop stop-color="#9DAFAF"/><stop offset="1" stop-color="#505F62"/></linearGradient><linearGradient id="e" x1="35.815" x2="62.37" y1="31.576" y2="71.133" gradientUnits="userSpaceOnUse"><stop stop-color="#C6D5D5"/><stop offset="1" stop-color="#CDDBDE"/></linearGradient><filter id="a" width="96.202" height="101.477" x=".893" y=".183" color-interpolation-filters="sRGB" filterUnits="userSpaceOnUse"><feFlood flood-opacity="0" result="BackgroundImageFix"/><feColorMatrix in="SourceAlpha" result="hardAlpha" values="0 0 0 0 0 0 0 0 0 0 0 0 0 0 0 0 0 0 127 0"/><feOffset/><feGaussianBlur stdDeviation="1.794"/><feComposite in2="hardAlpha" operator="out"/><feColorMatrix values="0 0 0 0 0.24 0 0 0 0 0.36 0 0 0 0 0.35 0 0 0 0.5 0"/><feBlend in2="BackgroundImageFix" result="effect1_dropShadow_1502_31398"/><feColorMatrix in="SourceAlpha" result="hardAlpha" values="0 0 0 0 0 0 0 0 0 0 0 0 0 0 0 0 0 0 127 0"/><feOffset/><feGaussianBlur stdDeviation="10.764"/><feComposite in2="hardAlpha" operator="out"/><feColorMatrix values="0 0 0 0 0.4 0 0 0 0 0.583333 0 0 0 0 0.6 0 0 0 0.24 0"/><feBlend in2="effect1_dropShadow_1502_31398" result="effect2_dropShadow_1502_31398"/><feBlend in="SourceGraphic" in2="effect2_dropShadow_1502_31398" result="shape"/></filter><filter id="c" width="53.274" height="57.967" x="22.357" y="21.938" color-interpolation-filters="sRGB" filterUnits="userSpaceOnUse"><feFlood flood-opacity="0" result="BackgroundImageFix"/><feColorMatrix in="SourceAlpha" result="hardAlpha" values="0 0 0 0 0 0 0 0 0 0 0 0 0 0 0 0 0 0 127 0"/><feOffset/><feGaussianBlur stdDeviation="1.5"/><feComposite in2="hardAlpha" operator="out"/><feColorMatrix values="0 0 0 0 0 0 0 0 0 0 0 0 0 0 0 0 0 0 0.25 0"/><feBlend in2="BackgroundImageFix" result="effect1_dropShadow_1502_31398"/><feBlend in="SourceGraphic" in2="effect1_dropShadow_1502_31398" result="shape"/></filter><filter id="f" width="28.904" height="17.618" x="34.548" y="40.337" color-interpolation-filters="sRGB" filterUnits="userSpaceOnUse"><feFlood flood-opacity="0" result="BackgroundImageFix"/><feBlend in="SourceGraphic" in2="BackgroundImageFix" result="shape"/><feColorMatrix in="SourceAlpha" result="hardAlpha" values="0 0 0 0 0 0 0 0 0 0 0 0 0 0 0 0 0 0 127 0"/><feOffset/><feGaussianBlur stdDeviation="5"/><feComposite in2="hardAlpha" k2="-1" k3="1" operator="arithmetic"/><feColorMatrix values="0 0 0 0 0.435542 0 0 0 0 0.582792 0 0 0 0 0.582792 0 0 0 0.3 0"/><feBlend in2="shape" result="effect1_innerShadow_1502_31398"/><feColorMatrix in="SourceAlpha" result="hardAlpha" values="0 0 0 0 0 0 0 0 0 0 0 0 0 0 0 0 0 0 127 0"/><feOffset dy="1.356"/><feGaussianBlur stdDeviation=".678"/><feComposite in2="hardAlpha" k2="-1" k3="1" operator="arithmetic"/><feColorMatrix values="0 0 0 0 0 0 0 0 0 0 0 0 0 0 0 0 0 0 0.47 0"/><feBlend in2="effect1_innerShadow_1502_31398" result="effect2_innerShadow_1502_31398"/></filter></defs></svg>