<svg xmlns="http://www.w3.org/2000/svg" width="98" height="102" fill="none"><g filter="url(#a)"><path fill="url(#b)" d="M44.233 23.173a9.522 9.522 0 0 1 9.523 0l17.05 9.844a9.522 9.522 0 0 1 4.761 8.247v19.688a9.523 9.523 0 0 1-4.761 8.246l-17.05 9.844a9.523 9.523 0 0 1-9.523 0l-17.05-9.844a9.523 9.523 0 0 1-4.761-8.246V41.264a9.522 9.522 0 0 1 4.76-8.247l17.051-9.844z"/></g><g filter="url(#c)"><path fill="url(#d)" d="M44.759 26.259a8.47 8.47 0 0 1 8.47 0l15.167 8.757a8.47 8.47 0 0 1 4.235 7.335v17.513a8.47 8.47 0 0 1-4.235 7.336L53.23 75.956a8.47 8.47 0 0 1-8.471 0L29.592 67.2a8.47 8.47 0 0 1-4.235-7.336V42.351a8.47 8.47 0 0 1 4.235-7.335l15.167-8.757z"/><path stroke="url(#e)" stroke-width="1.695" d="M45.183 26.993a7.623 7.623 0 0 1 7.623 0l15.166 8.756a7.623 7.623 0 0 1 3.812 6.602v17.513a7.623 7.623 0 0 1-3.812 6.602l-15.166 8.756a7.623 7.623 0 0 1-7.623 0l-15.167-8.756a7.623 7.623 0 0 1-3.811-6.602V42.351a7.623 7.623 0 0 1 3.811-6.602l15.167-8.756z"/></g><g filter="url(#f)"><path fill="#14161B" d="M48.754 65.74 45.197 62l.987-1.498a.4.4 0 0 0-.185-.59l-11.497-4.643-2.797-10.955 12.917 4.621A.3.3 0 0 0 45 48.77l4-9.398 4.002 9.398a.3.3 0 0 0 .377.165l12.917-4.62-2.797 10.954-11.497 4.642a.4.4 0 0 0-.185.591L52.803 62l-3.557 3.74a.34.34 0 0 1-.492 0z"/></g><defs><linearGradient id="b" x1="36.391" x2="60.401" y1="28.197" y2="77.599" gradientUnits="userSpaceOnUse"><stop stop-color="#9B10FF"/><stop offset="1" stop-color="#5F0BB2"/></linearGradient><linearGradient id="d" x1="42.558" x2="60.248" y1="47.459" y2="76.133" gradientUnits="userSpaceOnUse"><stop stop-color="#AC54E3"/><stop offset="1" stop-color="#640BB2"/></linearGradient><linearGradient id="e" x1="35.815" x2="62.37" y1="31.762" y2="71.32" gradientUnits="userSpaceOnUse"><stop stop-color="#EBBAF7"/><stop offset="1" stop-color="#BF8CF2"/></linearGradient><filter id="a" width="96.202" height="101.477" x=".893" y=".369" color-interpolation-filters="sRGB" filterUnits="userSpaceOnUse"><feFlood flood-opacity="0" result="BackgroundImageFix"/><feColorMatrix in="SourceAlpha" result="hardAlpha" values="0 0 0 0 0 0 0 0 0 0 0 0 0 0 0 0 0 0 127 0"/><feOffset/><feGaussianBlur stdDeviation="1.794"/><feComposite in2="hardAlpha" operator="out"/><feColorMatrix values="0 0 0 0 0.563334 0 0 0 0 0.170333 0 0 0 0 0.956333 0 0 0 0.8 0"/><feBlend in2="BackgroundImageFix" result="effect1_dropShadow_1494_31579"/><feColorMatrix in="SourceAlpha" result="hardAlpha" values="0 0 0 0 0 0 0 0 0 0 0 0 0 0 0 0 0 0 127 0"/><feOffset/><feGaussianBlur stdDeviation="10.764"/><feComposite in2="hardAlpha" operator="out"/><feColorMatrix values="0 0 0 0 0.5582 0 0 0 0 0.107 0 0 0 0 0.953 0 0 0 0.55 0"/><feBlend in2="effect1_dropShadow_1494_31579" result="effect2_dropShadow_1494_31579"/><feBlend in="SourceGraphic" in2="effect2_dropShadow_1494_31579" result="shape"/></filter><filter id="c" width="53.274" height="57.967" x="22.357" y="22.124" color-interpolation-filters="sRGB" filterUnits="userSpaceOnUse"><feFlood flood-opacity="0" result="BackgroundImageFix"/><feColorMatrix in="SourceAlpha" result="hardAlpha" values="0 0 0 0 0 0 0 0 0 0 0 0 0 0 0 0 0 0 127 0"/><feOffset/><feGaussianBlur stdDeviation="1.5"/><feComposite in2="hardAlpha" operator="out"/><feColorMatrix values="0 0 0 0 0 0 0 0 0 0 0 0 0 0 0 0 0 0 0.25 0"/><feBlend in2="BackgroundImageFix" result="effect1_dropShadow_1494_31579"/><feBlend in="SourceGraphic" in2="effect1_dropShadow_1494_31579" result="shape"/></filter><filter id="f" width="34.591" height="27.83" x="31.705" y="39.372" color-interpolation-filters="sRGB" filterUnits="userSpaceOnUse"><feFlood flood-opacity="0" result="BackgroundImageFix"/><feBlend in="SourceGraphic" in2="BackgroundImageFix" result="shape"/><feColorMatrix in="SourceAlpha" result="hardAlpha" values="0 0 0 0 0 0 0 0 0 0 0 0 0 0 0 0 0 0 127 0"/><feOffset/><feGaussianBlur stdDeviation="5"/><feComposite in2="hardAlpha" k2="-1" k3="1" operator="arithmetic"/><feColorMatrix values="0 0 0 0 0.509167 0 0 0 0 0.1165 0 0 0 0 0.901833 0 0 0 0.3 0"/><feBlend in2="shape" result="effect1_innerShadow_1494_31579"/><feColorMatrix in="SourceAlpha" result="hardAlpha" values="0 0 0 0 0 0 0 0 0 0 0 0 0 0 0 0 0 0 127 0"/><feOffset dy="1.356"/><feGaussianBlur stdDeviation=".678"/><feComposite in2="hardAlpha" k2="-1" k3="1" operator="arithmetic"/><feColorMatrix values="0 0 0 0 0 0 0 0 0 0 0 0 0 0 0 0 0 0 0.47 0"/><feBlend in2="effect1_innerShadow_1494_31579" result="effect2_innerShadow_1494_31579"/></filter></defs></svg>